<?xml version="1.0" encoding="UTF-8"?>
<svg width="2102px" height="512px" viewBox="0 0 2102 512" version="1.1" xmlns="http://www.w3.org/2000/svg" xmlns:xlink="http://www.w3.org/1999/xlink">
    <title>banner</title>
    <defs>
        <path d="M178.998,315 L179,439 L105,439 L105,46 L240,46 L240,46.004 L241.724203,46.0180192 C314.980631,47.2057605 374,106.960524 374,180.5 C374,254.281294 314.591849,314.187071 241.001081,314.991796 L241,315 L178.998,315 Z M240.5,109 C200.459356,109 168,141.459356 168,181.5 C168,221.540644 200.459356,254 240.5,254 C280.540644,254 313,221.540644 313,181.5 C313,141.459356 280.540644,109 240.5,109 Z" id="path-1"></path>
        <filter x="-9.3%" y="-10.2%" width="137.2%" height="122.9%" filterUnits="objectBoundingBox" id="filter-2">
            <feOffset dx="30" dy="5" in="SourceAlpha" result="shadowOffsetOuter1"></feOffset>
            <feGaussianBlur stdDeviation="10" in="shadowOffsetOuter1" result="shadowBlurOuter1"></feGaussianBlur>
            <feColorMatrix values="0 0 0 0 0   0 0 0 0 0   0 0 0 0 0  0 0 0 0.253425045 0" type="matrix" in="shadowBlurOuter1"></feColorMatrix>
        </filter>
    </defs>
    <g id="banner" stroke="none" stroke-width="1" fill="none" fill-rule="evenodd">
        <g id="Preview.js" transform="translate(600.020000, 175.700000)" fill="#2A65AD" fill-rule="nonzero">
            <path d="M7.26,234.3 C5.06,234.3 3.3,233.64 1.98,232.32 C0.66,231 0,229.24 0,227.04 L0,10.89 C0,8.47 0.66,6.6 1.98,5.28 C3.3,3.96 5.06,3.3 7.26,3.3 L87.45,3.3 C102.85,3.3 116.215,5.885 127.545,11.055 C138.875,16.225 147.675,23.87 153.945,33.99 C160.215,44.11 163.35,56.65 163.35,71.61 C163.35,86.57 160.215,99.11 153.945,109.23 C147.675,119.35 138.875,126.995 127.545,132.165 C116.215,137.335 102.85,139.92 87.45,139.92 L20.79,139.92 L20.79,227.04 C20.79,229.24 20.13,231 18.81,232.32 C17.49,233.64 15.62,234.3 13.2,234.3 L7.26,234.3 Z M20.79,120.12 L85.8,120.12 C104.94,120.12 119.185,115.94 128.535,107.58 C137.885,99.22 142.56,87.23 142.56,71.61 C142.56,55.99 137.885,44 128.535,35.64 C119.185,27.28 104.94,23.1 85.8,23.1 L20.79,23.1 L20.79,120.12 Z" id="Shape"></path>
            <path d="M210.21,234.3 C208.01,234.3 206.25,233.64 204.93,232.32 C203.61,231 202.95,229.24 202.95,227.04 L202.95,70.29 C202.95,68.09 203.61,66.275 204.93,64.845 C206.25,63.415 208.01,62.7 210.21,62.7 L215.49,62.7 C217.69,62.7 219.505,63.415 220.935,64.845 C222.365,66.275 223.08,68.09 223.08,70.29 L223.08,85.47 C227.04,77.77 232.76,72.05 240.24,68.31 C247.72,64.57 256.96,62.7 267.96,62.7 L280.17,62.7 C282.37,62.7 284.13,63.36 285.45,64.68 C286.77,66 287.43,67.76 287.43,69.96 L287.43,74.58 C287.43,76.78 286.77,78.54 285.45,79.86 C284.13,81.18 282.37,81.84 280.17,81.84 L265.98,81.84 C252.78,81.84 242.33,85.69 234.63,93.39 C226.93,101.09 223.08,111.54 223.08,124.74 L223.08,227.04 C223.08,229.24 222.365,231 220.935,232.32 C219.505,233.64 217.69,234.3 215.49,234.3 L210.21,234.3 Z" id="Path"></path>
            <path d="M377.52,237.6 C356.18,237.6 339.24,230.615 326.7,216.645 C314.16,202.675 307.01,184.36 305.25,161.7 C305.03,158.4 304.92,154 304.92,148.5 C304.92,143 305.03,138.6 305.25,135.3 C306.35,120.34 309.87,107.14 315.81,95.7 C321.75,84.26 329.945,75.35 340.395,68.97 C350.845,62.59 363.22,59.4 377.52,59.4 C392.92,59.4 406.01,62.81 416.79,69.63 C427.57,76.45 435.875,86.24 441.705,99 C447.535,111.76 450.45,126.94 450.45,144.54 L450.45,149.49 C450.45,151.69 449.735,153.45 448.305,154.77 C446.875,156.09 445.06,156.75 442.86,156.75 L325.38,156.75 C325.38,156.75 325.38,157.19 325.38,158.07 C325.38,158.95 325.38,159.61 325.38,160.05 C325.82,169.95 328.13,179.355 332.31,188.265 C336.49,197.175 342.43,204.435 350.13,210.045 C357.83,215.655 366.96,218.46 377.52,218.46 C386.98,218.46 394.845,217.03 401.115,214.17 C407.385,211.31 412.39,208.175 416.13,204.765 C419.87,201.355 422.29,198.77 423.39,197.01 C425.37,194.15 426.91,192.445 428.01,191.895 C429.11,191.345 430.87,191.07 433.29,191.07 L438.57,191.07 C440.55,191.07 442.255,191.675 443.685,192.885 C445.115,194.095 445.72,195.69 445.5,197.67 C445.28,200.75 443.575,204.545 440.385,209.055 C437.195,213.565 432.685,218.02 426.855,222.42 C421.025,226.82 413.93,230.45 405.57,233.31 C397.21,236.17 387.86,237.6 377.52,237.6 Z M325.38,138.27 L430.32,138.27 L430.32,136.95 C430.32,125.95 428.23,116.05 424.05,107.25 C419.87,98.45 413.82,91.465 405.9,86.295 C397.98,81.125 388.52,78.54 377.52,78.54 C366.52,78.54 357.115,81.125 349.305,86.295 C341.495,91.465 335.555,98.45 331.485,107.25 C327.415,116.05 325.38,125.95 325.38,136.95 L325.38,138.27 Z" id="Shape"></path>
            <path d="M547.47,234.3 C543.95,234.3 541.255,233.53 539.385,231.99 C537.515,230.45 536.03,228.47 534.93,226.05 L474.21,72.93 C473.77,71.61 473.55,70.4 473.55,69.3 C473.55,67.54 474.21,66 475.53,64.68 C476.85,63.36 478.39,62.7 480.15,62.7 L487.08,62.7 C489.28,62.7 490.985,63.305 492.195,64.515 C493.405,65.725 494.12,66.77 494.34,67.65 L550.11,210.21 L605.88,67.65 C606.32,66.77 607.09,65.725 608.19,64.515 C609.29,63.305 610.94,62.7 613.14,62.7 L620.07,62.7 C621.83,62.7 623.37,63.36 624.69,64.68 C626.01,66 626.67,67.54 626.67,69.3 C626.67,70.4 626.45,71.61 626.01,72.93 L565.29,226.05 C564.41,228.47 562.98,230.45 561,231.99 C559.02,233.53 556.27,234.3 552.75,234.3 L547.47,234.3 Z" id="Path"></path>
            <path d="M672.54,234.3 C670.34,234.3 668.58,233.64 667.26,232.32 C665.94,231 665.28,229.24 665.28,227.04 L665.28,69.96 C665.28,67.76 665.94,66 667.26,64.68 C668.58,63.36 670.34,62.7 672.54,62.7 L678.15,62.7 C680.35,62.7 682.11,63.36 683.43,64.68 C684.75,66 685.41,67.76 685.41,69.96 L685.41,227.04 C685.41,229.24 684.75,231 683.43,232.32 C682.11,233.64 680.35,234.3 678.15,234.3 L672.54,234.3 Z M668.91,27.39 C666.71,27.39 664.95,26.73 663.63,25.41 C662.31,24.09 661.65,22.33 661.65,20.13 L661.65,7.59 C661.65,5.39 662.31,3.575 663.63,2.145 C664.95,0.715 666.71,0 668.91,0 L681.45,0 C683.65,0 685.465,0.715 686.895,2.145 C688.325,3.575 689.04,5.39 689.04,7.59 L689.04,20.13 C689.04,22.33 688.325,24.09 686.895,25.41 C685.465,26.73 683.65,27.39 681.45,27.39 L668.91,27.39 Z" id="Shape"></path>
            <path d="M802.56,237.6 C781.22,237.6 764.28,230.615 751.74,216.645 C739.2,202.675 732.05,184.36 730.29,161.7 C730.07,158.4 729.96,154 729.96,148.5 C729.96,143 730.07,138.6 730.29,135.3 C731.39,120.34 734.91,107.14 740.85,95.7 C746.79,84.26 754.985,75.35 765.435,68.97 C775.885,62.59 788.26,59.4 802.56,59.4 C817.96,59.4 831.05,62.81 841.83,69.63 C852.61,76.45 860.915,86.24 866.745,99 C872.575,111.76 875.49,126.94 875.49,144.54 L875.49,149.49 C875.49,151.69 874.775,153.45 873.345,154.77 C871.915,156.09 870.1,156.75 867.9,156.75 L750.42,156.75 C750.42,156.75 750.42,157.19 750.42,158.07 C750.42,158.95 750.42,159.61 750.42,160.05 C750.86,169.95 753.17,179.355 757.35,188.265 C761.53,197.175 767.47,204.435 775.17,210.045 C782.87,215.655 792,218.46 802.56,218.46 C812.02,218.46 819.885,217.03 826.155,214.17 C832.425,211.31 837.43,208.175 841.17,204.765 C844.91,201.355 847.33,198.77 848.43,197.01 C850.41,194.15 851.95,192.445 853.05,191.895 C854.15,191.345 855.91,191.07 858.33,191.07 L863.61,191.07 C865.59,191.07 867.295,191.675 868.725,192.885 C870.155,194.095 870.76,195.69 870.54,197.67 C870.32,200.75 868.615,204.545 865.425,209.055 C862.235,213.565 857.725,218.02 851.895,222.42 C846.065,226.82 838.97,230.45 830.61,233.31 C822.25,236.17 812.9,237.6 802.56,237.6 Z M750.42,138.27 L855.36,138.27 L855.36,136.95 C855.36,125.95 853.27,116.05 849.09,107.25 C844.91,98.45 838.86,91.465 830.94,86.295 C823.02,81.125 813.56,78.54 802.56,78.54 C791.56,78.54 782.155,81.125 774.345,86.295 C766.535,91.465 760.595,98.45 756.525,107.25 C752.455,116.05 750.42,125.95 750.42,136.95 L750.42,138.27 Z" id="Shape"></path>
            <path d="M959.31,234.3 C956.45,234.3 954.25,233.64 952.71,232.32 C951.17,231 949.85,228.91 948.75,226.05 L902.22,72.93 C901.78,71.61 901.56,70.4 901.56,69.3 C901.56,67.54 902.22,66 903.54,64.68 C904.86,63.36 906.4,62.7 908.16,62.7 L914.43,62.7 C916.63,62.7 918.335,63.305 919.545,64.515 C920.755,65.725 921.47,66.77 921.69,67.65 L962.28,204.93 L1005.51,69.3 C1005.95,67.98 1006.83,66.55 1008.15,65.01 C1009.47,63.47 1011.56,62.7 1014.42,62.7 L1021.02,62.7 C1023.88,62.7 1026.025,63.47 1027.455,65.01 C1028.885,66.55 1029.71,67.98 1029.93,69.3 L1073.16,204.93 L1113.75,67.65 C1113.97,66.77 1114.685,65.725 1115.895,64.515 C1117.105,63.305 1118.81,62.7 1121.01,62.7 L1127.28,62.7 C1129.04,62.7 1130.58,63.36 1131.9,64.68 C1133.22,66 1133.88,67.54 1133.88,69.3 C1133.88,70.4 1133.66,71.61 1133.22,72.93 L1086.69,226.05 C1085.81,228.91 1084.6,231 1083.06,232.32 C1081.52,233.64 1079.21,234.3 1076.13,234.3 L1070.52,234.3 C1067.66,234.3 1065.295,233.64 1063.425,232.32 C1061.555,231 1060.18,228.91 1059.3,226.05 L1017.72,96.03 L976.14,226.05 C975.26,228.91 973.94,231 972.18,232.32 C970.42,233.64 968,234.3 964.92,234.3 L959.31,234.3 Z" id="Path"></path>
            <path d="M1164.9,234.3 C1162.7,234.3 1160.94,233.64 1159.62,232.32 C1158.3,231 1157.64,229.24 1157.64,227.04 L1157.64,211.2 C1157.64,209 1158.3,207.185 1159.62,205.755 C1160.94,204.325 1162.7,203.61 1164.9,203.61 L1180.74,203.61 C1182.94,203.61 1184.755,204.325 1186.185,205.755 C1187.615,207.185 1188.33,209 1188.33,211.2 L1188.33,227.04 C1188.33,229.24 1187.615,231 1186.185,232.32 C1184.755,233.64 1182.94,234.3 1180.74,234.3 L1164.9,234.3 Z" id="Path"></path>
            <path d="M1206.48,297 C1204.28,297 1202.52,296.34 1201.2,295.02 C1199.88,293.7 1199.22,291.94 1199.22,289.74 L1199.22,285.12 C1199.22,282.92 1199.88,281.16 1201.2,279.84 C1202.52,278.52 1204.28,277.86 1206.48,277.86 L1207.8,277.86 C1216.82,277.86 1223.42,276.21 1227.6,272.91 C1231.78,269.61 1234.475,265.21 1235.685,259.71 C1236.895,254.21 1237.5,248.16 1237.5,241.56 L1237.5,69.96 C1237.5,67.76 1238.16,66 1239.48,64.68 C1240.8,63.36 1242.56,62.7 1244.76,62.7 L1250.37,62.7 C1252.57,62.7 1254.33,63.36 1255.65,64.68 C1256.97,66 1257.63,67.76 1257.63,69.96 L1257.63,241.56 C1257.63,251.9 1256.255,261.25 1253.505,269.61 C1250.755,277.97 1245.805,284.625 1238.655,289.575 C1231.505,294.525 1221.22,297 1207.8,297 L1206.48,297 Z M1241.13,27.39 C1238.93,27.39 1237.17,26.73 1235.85,25.41 C1234.53,24.09 1233.87,22.33 1233.87,20.13 L1233.87,7.59 C1233.87,5.39 1234.53,3.575 1235.85,2.145 C1237.17,0.715 1238.93,0 1241.13,0 L1253.67,0 C1255.87,0 1257.685,0.715 1259.115,2.145 C1260.545,3.575 1261.26,5.39 1261.26,7.59 L1261.26,20.13 C1261.26,22.33 1260.545,24.09 1259.115,25.41 C1257.685,26.73 1255.87,27.39 1253.67,27.39 L1241.13,27.39 Z" id="Shape"></path>
            <path d="M1365.87,237.6 C1354.43,237.6 1344.585,236.06 1336.335,232.98 C1328.085,229.9 1321.32,226.215 1316.04,221.925 C1310.76,217.635 1306.855,213.4 1304.325,209.22 C1301.795,205.04 1300.42,201.85 1300.2,199.65 C1299.98,197.23 1300.75,195.415 1302.51,194.205 C1304.27,192.995 1305.92,192.39 1307.46,192.39 L1312.41,192.39 C1313.73,192.39 1314.885,192.61 1315.875,193.05 C1316.865,193.49 1318.13,194.7 1319.67,196.68 C1322.53,200.42 1325.83,203.995 1329.57,207.405 C1333.31,210.815 1338.095,213.51 1343.925,215.49 C1349.755,217.47 1357.07,218.46 1365.87,218.46 C1379.07,218.46 1389.96,215.93 1398.54,210.87 C1407.12,205.81 1411.41,198.33 1411.41,188.43 C1411.41,182.27 1409.705,177.32 1406.295,173.58 C1402.885,169.84 1397.11,166.54 1388.97,163.68 C1380.83,160.82 1369.83,157.85 1355.97,154.77 C1342.11,151.47 1331.495,147.51 1324.125,142.89 C1316.755,138.27 1311.75,132.935 1309.11,126.885 C1306.47,120.835 1305.15,114.29 1305.15,107.25 C1305.15,99.55 1307.35,92.015 1311.75,84.645 C1316.15,77.275 1322.695,71.225 1331.385,66.495 C1340.075,61.765 1351.02,59.4 1364.22,59.4 C1375,59.4 1384.185,60.83 1391.775,63.69 C1399.365,66.55 1405.58,70.015 1410.42,74.085 C1415.26,78.155 1418.835,82.17 1421.145,86.13 C1423.455,90.09 1424.72,93.28 1424.94,95.7 C1425.16,97.9 1424.5,99.66 1422.96,100.98 C1421.42,102.3 1419.66,102.96 1417.68,102.96 L1412.73,102.96 C1410.97,102.96 1409.54,102.575 1408.44,101.805 C1407.34,101.035 1406.35,99.99 1405.47,98.67 C1403.27,95.15 1400.63,91.85 1397.55,88.77 C1394.47,85.69 1390.345,83.215 1385.175,81.345 C1380.005,79.475 1373.02,78.54 1364.22,78.54 C1351.02,78.54 1341.23,81.235 1334.85,86.625 C1328.47,92.015 1325.28,98.89 1325.28,107.25 C1325.28,112.09 1326.6,116.325 1329.24,119.955 C1331.88,123.585 1336.83,126.885 1344.09,129.855 C1351.35,132.825 1361.91,135.96 1375.77,139.26 C1389.85,142.34 1400.96,146.135 1409.1,150.645 C1417.24,155.155 1423.015,160.49 1426.425,166.65 C1429.835,172.81 1431.54,180.07 1431.54,188.43 C1431.54,197.23 1429.065,205.37 1424.115,212.85 C1419.165,220.33 1411.795,226.325 1402.005,230.835 C1392.215,235.345 1380.17,237.6 1365.87,237.6 Z" id="Path"></path>
        </g>
        <g id="Group" transform="translate(17.000000, 15.000000)">
            <rect id="Rectangle" fill="#3B83F6" x="4" y="4" width="470" height="470" rx="69"></rect>
            <g id="Oval">
                <use fill="black" fill-opacity="1" filter="url(#filter-2)" xlink:href="#path-1"></use>
                <use fill="#FFFFFF" fill-rule="evenodd" xlink:href="#path-1"></use>
            </g>
        </g>
    </g>
</svg>